<?xml version="1.0" encoding="UTF-8" standalone="no"?>
<!DOCTYPE svg PUBLIC "-//W3C//DTD SVG 1.1//EN"
 "http://www.w3.org/Graphics/SVG/1.1/DTD/svg11.dtd">
<!-- Generated by graphviz version 3.0.0 (0)
 -->
<!-- Pages: 1 -->
<svg width="740pt" height="188pt"
 viewBox="0.00 0.00 739.59 188.00" xmlns="http://www.w3.org/2000/svg" xmlns:xlink="http://www.w3.org/1999/xlink">
<g id="graph0" class="graph" transform="scale(1 1) rotate(0) translate(4 184)">
<polygon fill="rgba(255,255,255,0)" stroke="transparent" points="-4,4 -4,-184 735.59,-184 735.59,4 -4,4"/>
<!-- Voltage_0 -->
<g id="node1" class="node">
<title>Voltage_0</title>
<ellipse fill="none" stroke="#f0f0f0" cx="53.3" cy="-162" rx="53.09" ry="18"/>
<text text-anchor="middle" x="53.3" y="-158.3" font-family="Times,serif" font-size="14.00" fill="#f0f0f0">Voltage_0:4</text>
</g>
<!-- ADSR_0 -->
<g id="node2" class="node">
<title>ADSR_0</title>
<ellipse fill="none" stroke="#f0f0f0" cx="365.3" cy="-90" rx="50.09" ry="18"/>
<text text-anchor="middle" x="365.3" y="-86.3" font-family="Times,serif" font-size="14.00" fill="#f0f0f0">ADSR_0:7</text>
</g>
<!-- Voltage_0&#45;&gt;ADSR_0 -->
<g id="edge1" class="edge">
<title>Voltage_0&#45;&gt;ADSR_0</title>
<path fill="none" stroke="#f0f0f0" d="M93.21,-149.88C100.85,-147.85 108.81,-145.81 116.3,-144 183.62,-127.76 261.83,-111.55 312.36,-101.41"/>
<polygon fill="#f0f0f0" stroke="#f0f0f0" points="313.28,-104.79 322.4,-99.4 311.91,-97.93 313.28,-104.79"/>
</g>
<!-- Amplifier_0 -->
<g id="node7" class="node">
<title>Amplifier_0</title>
<ellipse fill="none" stroke="#f0f0f0" cx="421.3" cy="-18" rx="61.99" ry="18"/>
<text text-anchor="middle" x="421.3" y="-14.3" font-family="Times,serif" font-size="14.00" fill="#f0f0f0">Amplifier_0:8</text>
</g>
<!-- ADSR_0&#45;&gt;Amplifier_0 -->
<g id="edge6" class="edge">
<title>ADSR_0&#45;&gt;Amplifier_0</title>
<path fill="none" stroke="#f0f0f0" d="M378.57,-72.41C385.37,-63.91 393.8,-53.37 401.36,-43.91"/>
<polygon fill="#f0f0f0" stroke="#f0f0f0" points="404.22,-45.95 407.73,-35.96 398.75,-41.58 404.22,-45.95"/>
</g>
<!-- Voltage_1 -->
<g id="node3" class="node">
<title>Voltage_1</title>
<ellipse fill="none" stroke="#f0f0f0" cx="178.3" cy="-162" rx="53.09" ry="18"/>
<text text-anchor="middle" x="178.3" y="-158.3" font-family="Times,serif" font-size="14.00" fill="#f0f0f0">Voltage_1:5</text>
</g>
<!-- Voltage_1&#45;&gt;ADSR_0 -->
<g id="edge2" class="edge">
<title>Voltage_1&#45;&gt;ADSR_0</title>
<path fill="none" stroke="#f0f0f0" d="M212.59,-148.16C243.5,-136.59 289.05,-119.54 322.36,-107.07"/>
<polygon fill="#f0f0f0" stroke="#f0f0f0" points="323.7,-110.31 331.84,-103.52 321.25,-103.75 323.7,-110.31"/>
</g>
<!-- Voltage_2 -->
<g id="node4" class="node">
<title>Voltage_2</title>
<ellipse fill="none" stroke="#f0f0f0" cx="303.3" cy="-162" rx="53.09" ry="18"/>
<text text-anchor="middle" x="303.3" y="-158.3" font-family="Times,serif" font-size="14.00" fill="#f0f0f0">Voltage_2:6</text>
</g>
<!-- Voltage_2&#45;&gt;ADSR_0 -->
<g id="edge3" class="edge">
<title>Voltage_2&#45;&gt;ADSR_0</title>
<path fill="none" stroke="#f0f0f0" d="M317.99,-144.41C325.71,-135.69 335.32,-124.85 343.85,-115.21"/>
<polygon fill="#f0f0f0" stroke="#f0f0f0" points="346.7,-117.28 350.71,-107.47 341.46,-112.64 346.7,-117.28"/>
</g>
<!-- Voltage_3 -->
<g id="node5" class="node">
<title>Voltage_3</title>
<ellipse fill="none" stroke="#f0f0f0" cx="428.3" cy="-162" rx="53.09" ry="18"/>
<text text-anchor="middle" x="428.3" y="-158.3" font-family="Times,serif" font-size="14.00" fill="#f0f0f0">Voltage_3:0</text>
</g>
<!-- Voltage_3&#45;&gt;ADSR_0 -->
<g id="edge4" class="edge">
<title>Voltage_3&#45;&gt;ADSR_0</title>
<path fill="none" stroke="#f0f0f0" d="M413.37,-144.41C405.44,-135.61 395.56,-124.63 386.82,-114.92"/>
<polygon fill="#f0f0f0" stroke="#f0f0f0" points="389.41,-112.56 380.12,-107.47 384.21,-117.24 389.41,-112.56"/>
</g>
<!-- Voltage_4 -->
<g id="node6" class="node">
<title>Voltage_4</title>
<ellipse fill="none" stroke="#f0f0f0" cx="553.3" cy="-162" rx="53.09" ry="18"/>
<text text-anchor="middle" x="553.3" y="-158.3" font-family="Times,serif" font-size="14.00" fill="#f0f0f0">Voltage_4:3</text>
</g>
<!-- Voltage_4&#45;&gt;ADSR_0 -->
<g id="edge5" class="edge">
<title>Voltage_4&#45;&gt;ADSR_0</title>
<path fill="none" stroke="#f0f0f0" d="M518.81,-148.16C487.75,-136.59 441.95,-119.54 408.46,-107.07"/>
<polygon fill="#f0f0f0" stroke="#f0f0f0" points="409.52,-103.73 398.93,-103.52 407.08,-110.29 409.52,-103.73"/>
</g>
<!-- Voltage_5 -->
<g id="node8" class="node">
<title>Voltage_5</title>
<ellipse fill="none" stroke="#f0f0f0" cx="678.3" cy="-162" rx="53.09" ry="18"/>
<text text-anchor="middle" x="678.3" y="-158.3" font-family="Times,serif" font-size="14.00" fill="#f0f0f0">Voltage_5:1</text>
</g>
<!-- VCO_0 -->
<g id="node9" class="node">
<title>VCO_0</title>
<ellipse fill="none" stroke="#f0f0f0" cx="578.3" cy="-90" rx="44.69" ry="18"/>
<text text-anchor="middle" x="578.3" y="-86.3" font-family="Times,serif" font-size="14.00" fill="#f0f0f0">VCO_0:2</text>
</g>
<!-- Voltage_5&#45;&gt;VCO_0 -->
<g id="edge7" class="edge">
<title>Voltage_5&#45;&gt;VCO_0</title>
<path fill="none" stroke="#f0f0f0" d="M656.1,-145.46C641.93,-135.54 623.38,-122.56 607.94,-111.75"/>
<polygon fill="#f0f0f0" stroke="#f0f0f0" points="609.94,-108.88 599.74,-106.01 605.93,-114.61 609.94,-108.88"/>
</g>
<!-- VCO_0&#45;&gt;Amplifier_0 -->
<g id="edge8" class="edge">
<title>VCO_0&#45;&gt;Amplifier_0</title>
<path fill="none" stroke="#f0f0f0" d="M549.5,-76.16C525.27,-65.36 490.3,-49.77 463.01,-37.6"/>
<polygon fill="#f0f0f0" stroke="#f0f0f0" points="464.26,-34.32 453.7,-33.45 461.41,-40.72 464.26,-34.32"/>
</g>
</g>
</svg>
