<?xml version="1.0" encoding="UTF-8" standalone="no"?>
<!DOCTYPE svg PUBLIC "-//W3C//DTD SVG 1.1//EN"
 "http://www.w3.org/Graphics/SVG/1.1/DTD/svg11.dtd">
<!-- Generated by graphviz version 3.0.0 (0)
 -->
<!-- Pages: 1 -->
<svg width="356pt" height="188pt"
 viewBox="0.00 0.00 355.59 188.00" xmlns="http://www.w3.org/2000/svg" xmlns:xlink="http://www.w3.org/1999/xlink">
<g id="graph0" class="graph" transform="scale(1 1) rotate(0) translate(4 184)">
<polygon fill="rgba(255,255,255,0)" stroke="transparent" points="-4,4 -4,-184 351.59,-184 351.59,4 -4,4"/>
<!-- Voltage_0 -->
<g id="node1" class="node">
<title>Voltage_0</title>
<ellipse fill="none" stroke="#f0f0f0" cx="53.3" cy="-162" rx="53.09" ry="18"/>
<text text-anchor="middle" x="53.3" y="-158.3" font-family="Times,serif" font-size="14.00" fill="#f0f0f0">Voltage_0:2</text>
</g>
<!-- VCO_0 -->
<g id="node2" class="node">
<title>VCO_0</title>
<ellipse fill="none" stroke="#f0f0f0" cx="53.3" cy="-90" rx="44.69" ry="18"/>
<text text-anchor="middle" x="53.3" y="-86.3" font-family="Times,serif" font-size="14.00" fill="#f0f0f0">VCO_0:3</text>
</g>
<!-- Voltage_0&#45;&gt;VCO_0 -->
<g id="edge1" class="edge">
<title>Voltage_0&#45;&gt;VCO_0</title>
<path fill="none" stroke="#f0f0f0" d="M53.3,-143.7C53.3,-135.98 53.3,-126.71 53.3,-118.11"/>
<polygon fill="#f0f0f0" stroke="#f0f0f0" points="56.8,-118.1 53.3,-108.1 49.8,-118.1 56.8,-118.1"/>
</g>
<!-- Filter_0 -->
<g id="node3" class="node">
<title>Filter_0</title>
<ellipse fill="none" stroke="#f0f0f0" cx="169.3" cy="-18" rx="45.49" ry="18"/>
<text text-anchor="middle" x="169.3" y="-14.3" font-family="Times,serif" font-size="14.00" fill="#f0f0f0">Filter_0:4</text>
</g>
<!-- VCO_0&#45;&gt;Filter_0 -->
<g id="edge2" class="edge">
<title>VCO_0&#45;&gt;Filter_0</title>
<path fill="none" stroke="#f0f0f0" d="M77.05,-74.67C94.22,-64.31 117.62,-50.18 136.56,-38.76"/>
<polygon fill="#f0f0f0" stroke="#f0f0f0" points="138.42,-41.72 145.17,-33.56 134.8,-35.73 138.42,-41.72"/>
</g>
<!-- Voltage_1 -->
<g id="node4" class="node">
<title>Voltage_1</title>
<ellipse fill="none" stroke="#f0f0f0" cx="169.3" cy="-90" rx="53.09" ry="18"/>
<text text-anchor="middle" x="169.3" y="-86.3" font-family="Times,serif" font-size="14.00" fill="#f0f0f0">Voltage_1:1</text>
</g>
<!-- Voltage_1&#45;&gt;Filter_0 -->
<g id="edge3" class="edge">
<title>Voltage_1&#45;&gt;Filter_0</title>
<path fill="none" stroke="#f0f0f0" d="M169.3,-71.7C169.3,-63.98 169.3,-54.71 169.3,-46.11"/>
<polygon fill="#f0f0f0" stroke="#f0f0f0" points="172.8,-46.1 169.3,-36.1 165.8,-46.1 172.8,-46.1"/>
</g>
<!-- Voltage_2 -->
<g id="node5" class="node">
<title>Voltage_2</title>
<ellipse fill="none" stroke="#f0f0f0" cx="294.3" cy="-90" rx="53.09" ry="18"/>
<text text-anchor="middle" x="294.3" y="-86.3" font-family="Times,serif" font-size="14.00" fill="#f0f0f0">Voltage_2:0</text>
</g>
<!-- Voltage_2&#45;&gt;Filter_0 -->
<g id="edge4" class="edge">
<title>Voltage_2&#45;&gt;Filter_0</title>
<path fill="none" stroke="#f0f0f0" d="M268.09,-74.33C249.34,-63.83 223.93,-49.59 203.57,-38.19"/>
<polygon fill="#f0f0f0" stroke="#f0f0f0" points="205.05,-35.01 194.61,-33.18 201.63,-41.12 205.05,-35.01"/>
</g>
</g>
</svg>
