<?xml version="1.0" encoding="UTF-8" standalone="no"?>
<!DOCTYPE svg PUBLIC "-//W3C//DTD SVG 1.1//EN"
 "http://www.w3.org/Graphics/SVG/1.1/DTD/svg11.dtd">
<!-- Generated by graphviz version 3.0.0 (0)
 -->
<!-- Pages: 1 -->
<svg width="1400pt" height="476pt"
 viewBox="0.00 0.00 1399.59 476.00" xmlns="http://www.w3.org/2000/svg" xmlns:xlink="http://www.w3.org/1999/xlink">
<g id="graph0" class="graph" transform="scale(1 1) rotate(0) translate(4 472)">
<polygon fill="rgba(255,255,255,0)" stroke="transparent" points="-4,4 -4,-472 1395.59,-472 1395.59,4 -4,4"/>
<!-- Voltage_0 -->
<g id="node1" class="node">
<title>Voltage_0</title>
<ellipse fill="none" stroke="#f0f0f0" cx="1338.3" cy="-450" rx="53.09" ry="18"/>
<text text-anchor="middle" x="1338.3" y="-446.3" font-family="Times,serif" font-size="14.00" fill="#f0f0f0">Voltage_0:0</text>
</g>
<!-- VCO_0 -->
<g id="node2" class="node">
<title>VCO_0</title>
<ellipse fill="none" stroke="#f0f0f0" cx="1338.3" cy="-378" rx="44.69" ry="18"/>
<text text-anchor="middle" x="1338.3" y="-374.3" font-family="Times,serif" font-size="14.00" fill="#f0f0f0">VCO_0:7</text>
</g>
<!-- Voltage_0&#45;&gt;VCO_0 -->
<g id="edge1" class="edge">
<title>Voltage_0&#45;&gt;VCO_0</title>
<path fill="none" stroke="#f0f0f0" d="M1338.3,-431.7C1338.3,-423.98 1338.3,-414.71 1338.3,-406.11"/>
<polygon fill="#f0f0f0" stroke="#f0f0f0" points="1341.8,-406.1 1338.3,-396.1 1334.8,-406.1 1341.8,-406.1"/>
</g>
<!-- Amplifier_0 -->
<g id="node3" class="node">
<title>Amplifier_0</title>
<ellipse fill="none" stroke="#f0f0f0" cx="1217.3" cy="-306" rx="65.79" ry="18"/>
<text text-anchor="middle" x="1217.3" y="-302.3" font-family="Times,serif" font-size="14.00" fill="#f0f0f0">Amplifier_0:11</text>
</g>
<!-- VCO_0&#45;&gt;Amplifier_0 -->
<g id="edge2" class="edge">
<title>VCO_0&#45;&gt;Amplifier_0</title>
<path fill="none" stroke="#f0f0f0" d="M1313.81,-362.83C1296.32,-352.72 1272.53,-338.95 1252.94,-327.62"/>
<polygon fill="#f0f0f0" stroke="#f0f0f0" points="1254.68,-324.58 1244.27,-322.61 1251.17,-330.64 1254.68,-324.58"/>
</g>
<!-- Mixer_0 -->
<g id="node5" class="node">
<title>Mixer_0</title>
<ellipse fill="none" stroke="#f0f0f0" cx="1011.3" cy="-234" rx="52.79" ry="18"/>
<text text-anchor="middle" x="1011.3" y="-230.3" font-family="Times,serif" font-size="14.00" fill="#f0f0f0">Mixer_0:13</text>
</g>
<!-- Amplifier_0&#45;&gt;Mixer_0 -->
<g id="edge4" class="edge">
<title>Amplifier_0&#45;&gt;Mixer_0</title>
<path fill="none" stroke="#f0f0f0" d="M1177.58,-291.5C1143.16,-279.81 1093.37,-262.89 1057.24,-250.61"/>
<polygon fill="#f0f0f0" stroke="#f0f0f0" points="1058.04,-247.19 1047.44,-247.28 1055.79,-253.81 1058.04,-247.19"/>
</g>
<!-- Voltage_1 -->
<g id="node4" class="node">
<title>Voltage_1</title>
<ellipse fill="none" stroke="#f0f0f0" cx="1217.3" cy="-378" rx="57.69" ry="18"/>
<text text-anchor="middle" x="1217.3" y="-374.3" font-family="Times,serif" font-size="14.00" fill="#f0f0f0">Voltage_1:10</text>
</g>
<!-- Voltage_1&#45;&gt;Amplifier_0 -->
<g id="edge3" class="edge">
<title>Voltage_1&#45;&gt;Amplifier_0</title>
<path fill="none" stroke="#f0f0f0" d="M1217.3,-359.7C1217.3,-351.98 1217.3,-342.71 1217.3,-334.11"/>
<polygon fill="#f0f0f0" stroke="#f0f0f0" points="1220.8,-334.1 1217.3,-324.1 1213.8,-334.1 1220.8,-334.1"/>
</g>
<!-- VCO_1 -->
<g id="node7" class="node">
<title>VCO_1</title>
<ellipse fill="none" stroke="#f0f0f0" cx="977.3" cy="-162" rx="49.29" ry="18"/>
<text text-anchor="middle" x="977.3" y="-158.3" font-family="Times,serif" font-size="14.00" fill="#f0f0f0">VCO_1:14</text>
</g>
<!-- Mixer_0&#45;&gt;VCO_1 -->
<g id="edge6" class="edge">
<title>Mixer_0&#45;&gt;VCO_1</title>
<path fill="none" stroke="#f0f0f0" d="M1003.06,-216.05C999.1,-207.89 994.25,-197.91 989.84,-188.82"/>
<polygon fill="#f0f0f0" stroke="#f0f0f0" points="992.97,-187.25 985.45,-179.79 986.67,-190.31 992.97,-187.25"/>
</g>
<!-- Voltage_2 -->
<g id="node6" class="node">
<title>Voltage_2</title>
<ellipse fill="none" stroke="#f0f0f0" cx="1011.3" cy="-306" rx="57.69" ry="18"/>
<text text-anchor="middle" x="1011.3" y="-302.3" font-family="Times,serif" font-size="14.00" fill="#f0f0f0">Voltage_2:12</text>
</g>
<!-- Voltage_2&#45;&gt;Mixer_0 -->
<g id="edge5" class="edge">
<title>Voltage_2&#45;&gt;Mixer_0</title>
<path fill="none" stroke="#f0f0f0" d="M1011.3,-287.7C1011.3,-279.98 1011.3,-270.71 1011.3,-262.11"/>
<polygon fill="#f0f0f0" stroke="#f0f0f0" points="1014.8,-262.1 1011.3,-252.1 1007.8,-262.1 1014.8,-262.1"/>
</g>
<!-- Filter_0 -->
<g id="node8" class="node">
<title>Filter_0</title>
<ellipse fill="none" stroke="#f0f0f0" cx="741.3" cy="-90" rx="50.09" ry="18"/>
<text text-anchor="middle" x="741.3" y="-86.3" font-family="Times,serif" font-size="14.00" fill="#f0f0f0">Filter_0:23</text>
</g>
<!-- VCO_1&#45;&gt;Filter_0 -->
<g id="edge7" class="edge">
<title>VCO_1&#45;&gt;Filter_0</title>
<path fill="none" stroke="#f0f0f0" d="M940.16,-149.99C899.13,-137.82 832.96,-118.19 788.34,-104.95"/>
<polygon fill="#f0f0f0" stroke="#f0f0f0" points="789.19,-101.55 778.6,-102.07 787.19,-108.26 789.19,-101.55"/>
</g>
<!-- Amplifier_2 -->
<g id="node16" class="node">
<title>Amplifier_2</title>
<ellipse fill="none" stroke="#f0f0f0" cx="544.3" cy="-18" rx="65.79" ry="18"/>
<text text-anchor="middle" x="544.3" y="-14.3" font-family="Times,serif" font-size="14.00" fill="#f0f0f0">Amplifier_2:24</text>
</g>
<!-- Filter_0&#45;&gt;Amplifier_2 -->
<g id="edge25" class="edge">
<title>Filter_0&#45;&gt;Amplifier_2</title>
<path fill="none" stroke="#f0f0f0" d="M706.98,-76.81C675.34,-65.56 628.05,-48.76 592.6,-36.16"/>
<polygon fill="#f0f0f0" stroke="#f0f0f0" points="593.53,-32.78 582.94,-32.73 591.19,-39.38 593.53,-32.78"/>
</g>
<!-- Voltage_3 -->
<g id="node9" class="node">
<title>Voltage_3</title>
<ellipse fill="none" stroke="#f0f0f0" cx="561.3" cy="-378" rx="53.09" ry="18"/>
<text text-anchor="middle" x="561.3" y="-374.3" font-family="Times,serif" font-size="14.00" fill="#f0f0f0">Voltage_3:3</text>
</g>
<!-- ADSR_0 -->
<g id="node10" class="node">
<title>ADSR_0</title>
<ellipse fill="none" stroke="#f0f0f0" cx="374.3" cy="-306" rx="53.89" ry="18"/>
<text text-anchor="middle" x="374.3" y="-302.3" font-family="Times,serif" font-size="14.00" fill="#f0f0f0">ADSR_0:16</text>
</g>
<!-- Voltage_3&#45;&gt;ADSR_0 -->
<g id="edge8" class="edge">
<title>Voltage_3&#45;&gt;ADSR_0</title>
<path fill="none" stroke="#f0f0f0" d="M527,-364.16C496.38,-352.7 451.39,-335.86 418.16,-323.42"/>
<polygon fill="#f0f0f0" stroke="#f0f0f0" points="419.29,-320.1 408.69,-319.88 416.83,-326.66 419.29,-320.1"/>
</g>
<!-- ADSR_1 -->
<g id="node11" class="node">
<title>ADSR_1</title>
<ellipse fill="none" stroke="#f0f0f0" cx="815.3" cy="-306" rx="53.89" ry="18"/>
<text text-anchor="middle" x="815.3" y="-302.3" font-family="Times,serif" font-size="14.00" fill="#f0f0f0">ADSR_1:18</text>
</g>
<!-- Voltage_3&#45;&gt;ADSR_1 -->
<g id="edge9" class="edge">
<title>Voltage_3&#45;&gt;ADSR_1</title>
<path fill="none" stroke="#f0f0f0" d="M601.26,-365.99C645.61,-353.76 717.23,-334.02 765.27,-320.79"/>
<polygon fill="#f0f0f0" stroke="#f0f0f0" points="766.43,-324.1 775.14,-318.07 764.57,-317.35 766.43,-324.1"/>
</g>
<!-- ADSR_0&#45;&gt;Amplifier_2 -->
<g id="edge14" class="edge">
<title>ADSR_0&#45;&gt;Amplifier_2</title>
<path fill="none" stroke="#f0f0f0" d="M384.42,-287.97C413.06,-239.78 494.79,-102.28 528.97,-44.78"/>
<polygon fill="#f0f0f0" stroke="#f0f0f0" points="532.12,-46.33 534.22,-35.94 526.1,-42.75 532.12,-46.33"/>
</g>
<!-- Mixer_1 -->
<g id="node21" class="node">
<title>Mixer_1</title>
<ellipse fill="none" stroke="#f0f0f0" cx="754.3" cy="-234" rx="52.79" ry="18"/>
<text text-anchor="middle" x="754.3" y="-230.3" font-family="Times,serif" font-size="14.00" fill="#f0f0f0">Mixer_1:21</text>
</g>
<!-- ADSR_1&#45;&gt;Mixer_1 -->
<g id="edge19" class="edge">
<title>ADSR_1&#45;&gt;Mixer_1</title>
<path fill="none" stroke="#f0f0f0" d="M800.84,-288.41C793.24,-279.69 783.79,-268.85 775.39,-259.21"/>
<polygon fill="#f0f0f0" stroke="#f0f0f0" points="777.86,-256.71 768.65,-251.47 772.58,-261.31 777.86,-256.71"/>
</g>
<!-- Voltage_4 -->
<g id="node12" class="node">
<title>Voltage_4</title>
<ellipse fill="none" stroke="#f0f0f0" cx="53.3" cy="-378" rx="53.09" ry="18"/>
<text text-anchor="middle" x="53.3" y="-374.3" font-family="Times,serif" font-size="14.00" fill="#f0f0f0">Voltage_4:1</text>
</g>
<!-- Voltage_4&#45;&gt;ADSR_0 -->
<g id="edge10" class="edge">
<title>Voltage_4&#45;&gt;ADSR_0</title>
<path fill="none" stroke="#f0f0f0" d="M92.55,-365.82C100.08,-363.79 107.91,-361.77 115.3,-360 184.76,-343.39 265.49,-327.39 318.11,-317.39"/>
<polygon fill="#f0f0f0" stroke="#f0f0f0" points="319.07,-320.77 328.24,-315.48 317.77,-313.89 319.07,-320.77"/>
</g>
<!-- Voltage_5 -->
<g id="node13" class="node">
<title>Voltage_5</title>
<ellipse fill="none" stroke="#f0f0f0" cx="182.3" cy="-378" rx="57.69" ry="18"/>
<text text-anchor="middle" x="182.3" y="-374.3" font-family="Times,serif" font-size="14.00" fill="#f0f0f0">Voltage_5:15</text>
</g>
<!-- Voltage_5&#45;&gt;ADSR_0 -->
<g id="edge11" class="edge">
<title>Voltage_5&#45;&gt;ADSR_0</title>
<path fill="none" stroke="#f0f0f0" d="M218.41,-363.83C249.95,-352.33 295.85,-335.6 329.68,-323.27"/>
<polygon fill="#f0f0f0" stroke="#f0f0f0" points="331.12,-326.47 339.31,-319.75 328.72,-319.89 331.12,-326.47"/>
</g>
<!-- Voltage_6 -->
<g id="node14" class="node">
<title>Voltage_6</title>
<ellipse fill="none" stroke="#f0f0f0" cx="311.3" cy="-378" rx="53.09" ry="18"/>
<text text-anchor="middle" x="311.3" y="-374.3" font-family="Times,serif" font-size="14.00" fill="#f0f0f0">Voltage_6:9</text>
</g>
<!-- Voltage_6&#45;&gt;ADSR_0 -->
<g id="edge12" class="edge">
<title>Voltage_6&#45;&gt;ADSR_0</title>
<path fill="none" stroke="#f0f0f0" d="M326.23,-360.41C334.15,-351.61 344.03,-340.63 352.77,-330.92"/>
<polygon fill="#f0f0f0" stroke="#f0f0f0" points="355.38,-333.24 359.47,-323.47 350.18,-328.56 355.38,-333.24"/>
</g>
<!-- Voltage_7 -->
<g id="node15" class="node">
<title>Voltage_7</title>
<ellipse fill="none" stroke="#f0f0f0" cx="436.3" cy="-378" rx="53.09" ry="18"/>
<text text-anchor="middle" x="436.3" y="-374.3" font-family="Times,serif" font-size="14.00" fill="#f0f0f0">Voltage_7:4</text>
</g>
<!-- Voltage_7&#45;&gt;ADSR_0 -->
<g id="edge13" class="edge">
<title>Voltage_7&#45;&gt;ADSR_0</title>
<path fill="none" stroke="#f0f0f0" d="M421.6,-360.41C413.88,-351.69 404.27,-340.85 395.74,-331.21"/>
<polygon fill="#f0f0f0" stroke="#f0f0f0" points="398.13,-328.64 388.88,-323.47 392.89,-333.28 398.13,-328.64"/>
</g>
<!-- Voltage_8 -->
<g id="node17" class="node">
<title>Voltage_8</title>
<ellipse fill="none" stroke="#f0f0f0" cx="1083.3" cy="-378" rx="57.69" ry="18"/>
<text text-anchor="middle" x="1083.3" y="-374.3" font-family="Times,serif" font-size="14.00" fill="#f0f0f0">Voltage_8:17</text>
</g>
<!-- Voltage_8&#45;&gt;ADSR_1 -->
<g id="edge15" class="edge">
<title>Voltage_8&#45;&gt;ADSR_1</title>
<path fill="none" stroke="#f0f0f0" d="M1040.53,-365.83C993.15,-353.45 916.78,-333.51 866.32,-320.33"/>
<polygon fill="#f0f0f0" stroke="#f0f0f0" points="867.14,-316.93 856.58,-317.78 865.37,-323.7 867.14,-316.93"/>
</g>
<!-- Voltage_9 -->
<g id="node18" class="node">
<title>Voltage_9</title>
<ellipse fill="none" stroke="#f0f0f0" cx="686.3" cy="-378" rx="53.09" ry="18"/>
<text text-anchor="middle" x="686.3" y="-374.3" font-family="Times,serif" font-size="14.00" fill="#f0f0f0">Voltage_9:6</text>
</g>
<!-- Voltage_9&#45;&gt;ADSR_1 -->
<g id="edge16" class="edge">
<title>Voltage_9&#45;&gt;ADSR_1</title>
<path fill="none" stroke="#f0f0f0" d="M713.34,-362.33C732.52,-351.92 758.46,-337.84 779.37,-326.49"/>
<polygon fill="#f0f0f0" stroke="#f0f0f0" points="781.17,-329.5 788.29,-321.65 777.83,-323.35 781.17,-329.5"/>
</g>
<!-- Voltage_10 -->
<g id="node19" class="node">
<title>Voltage_10</title>
<ellipse fill="none" stroke="#f0f0f0" cx="815.3" cy="-378" rx="57.69" ry="18"/>
<text text-anchor="middle" x="815.3" y="-374.3" font-family="Times,serif" font-size="14.00" fill="#f0f0f0">Voltage_10:8</text>
</g>
<!-- Voltage_10&#45;&gt;ADSR_1 -->
<g id="edge17" class="edge">
<title>Voltage_10&#45;&gt;ADSR_1</title>
<path fill="none" stroke="#f0f0f0" d="M815.3,-359.7C815.3,-351.98 815.3,-342.71 815.3,-334.11"/>
<polygon fill="#f0f0f0" stroke="#f0f0f0" points="818.8,-334.1 815.3,-324.1 811.8,-334.1 818.8,-334.1"/>
</g>
<!-- Voltage_11 -->
<g id="node20" class="node">
<title>Voltage_11</title>
<ellipse fill="none" stroke="#f0f0f0" cx="949.3" cy="-378" rx="57.69" ry="18"/>
<text text-anchor="middle" x="949.3" y="-374.3" font-family="Times,serif" font-size="14.00" fill="#f0f0f0">Voltage_11:2</text>
</g>
<!-- Voltage_11&#45;&gt;ADSR_1 -->
<g id="edge18" class="edge">
<title>Voltage_11&#45;&gt;ADSR_1</title>
<path fill="none" stroke="#f0f0f0" d="M920.88,-362.15C900.85,-351.69 873.83,-337.58 852.15,-326.25"/>
<polygon fill="#f0f0f0" stroke="#f0f0f0" points="853.7,-323.11 843.21,-321.58 850.46,-329.32 853.7,-323.11"/>
</g>
<!-- Amplifier_1 -->
<g id="node23" class="node">
<title>Amplifier_1</title>
<ellipse fill="none" stroke="#f0f0f0" cx="669.3" cy="-162" rx="65.79" ry="18"/>
<text text-anchor="middle" x="669.3" y="-158.3" font-family="Times,serif" font-size="14.00" fill="#f0f0f0">Amplifier_1:22</text>
</g>
<!-- Mixer_1&#45;&gt;Amplifier_1 -->
<g id="edge21" class="edge">
<title>Mixer_1&#45;&gt;Amplifier_1</title>
<path fill="none" stroke="#f0f0f0" d="M735.01,-217.12C723.76,-207.85 709.38,-196.01 696.94,-185.76"/>
<polygon fill="#f0f0f0" stroke="#f0f0f0" points="699.04,-182.96 689.1,-179.31 694.59,-188.37 699.04,-182.96"/>
</g>
<!-- Voltage_15 -->
<g id="node22" class="node">
<title>Voltage_15</title>
<ellipse fill="none" stroke="#f0f0f0" cx="681.3" cy="-306" rx="61.99" ry="18"/>
<text text-anchor="middle" x="681.3" y="-302.3" font-family="Times,serif" font-size="14.00" fill="#f0f0f0">Voltage_15:20</text>
</g>
<!-- Voltage_15&#45;&gt;Mixer_1 -->
<g id="edge20" class="edge">
<title>Voltage_15&#45;&gt;Mixer_1</title>
<path fill="none" stroke="#f0f0f0" d="M698.6,-288.41C707.94,-279.45 719.62,-268.25 729.87,-258.42"/>
<polygon fill="#f0f0f0" stroke="#f0f0f0" points="732.58,-260.68 737.37,-251.23 727.73,-255.62 732.58,-260.68"/>
</g>
<!-- Amplifier_1&#45;&gt;Filter_0 -->
<g id="edge23" class="edge">
<title>Amplifier_1&#45;&gt;Filter_0</title>
<path fill="none" stroke="#f0f0f0" d="M686.36,-144.41C695.5,-135.52 706.93,-124.41 716.99,-114.63"/>
<polygon fill="#f0f0f0" stroke="#f0f0f0" points="719.62,-116.95 724.35,-107.47 714.74,-111.93 719.62,-116.95"/>
</g>
<!-- Voltage_14 -->
<g id="node24" class="node">
<title>Voltage_14</title>
<ellipse fill="none" stroke="#f0f0f0" cx="626.3" cy="-234" rx="57.69" ry="18"/>
<text text-anchor="middle" x="626.3" y="-230.3" font-family="Times,serif" font-size="14.00" fill="#f0f0f0">Voltage_14:5</text>
</g>
<!-- Voltage_14&#45;&gt;Amplifier_1 -->
<g id="edge22" class="edge">
<title>Voltage_14&#45;&gt;Amplifier_1</title>
<path fill="none" stroke="#f0f0f0" d="M636.7,-216.05C641.77,-207.8 647.98,-197.7 653.61,-188.54"/>
<polygon fill="#f0f0f0" stroke="#f0f0f0" points="656.73,-190.14 658.98,-179.79 650.77,-186.48 656.73,-190.14"/>
</g>
<!-- Voltage_13 -->
<g id="node25" class="node">
<title>Voltage_13</title>
<ellipse fill="none" stroke="#f0f0f0" cx="814.3" cy="-162" rx="61.99" ry="18"/>
<text text-anchor="middle" x="814.3" y="-158.3" font-family="Times,serif" font-size="14.00" fill="#f0f0f0">Voltage_13:19</text>
</g>
<!-- Voltage_13&#45;&gt;Filter_0 -->
<g id="edge24" class="edge">
<title>Voltage_13&#45;&gt;Filter_0</title>
<path fill="none" stroke="#f0f0f0" d="M797,-144.41C787.5,-135.3 775.57,-123.87 765.19,-113.92"/>
<polygon fill="#f0f0f0" stroke="#f0f0f0" points="767.61,-111.38 757.97,-106.99 762.76,-116.44 767.61,-111.38"/>
</g>
</g>
</svg>
