<?xml version="1.0" encoding="UTF-8" standalone="no"?>
<!DOCTYPE svg PUBLIC "-//W3C//DTD SVG 1.1//EN"
 "http://www.w3.org/Graphics/SVG/1.1/DTD/svg11.dtd">
<!-- Generated by graphviz version 3.0.0 (0)
 -->
<!-- Pages: 1 -->
<svg width="247pt" height="476pt"
 viewBox="0.00 0.00 246.59 476.00" xmlns="http://www.w3.org/2000/svg" xmlns:xlink="http://www.w3.org/1999/xlink">
<g id="graph0" class="graph" transform="scale(1 1) rotate(0) translate(4 472)">
<polygon fill="rgba(255,255,255,0)" stroke="transparent" points="-4,4 -4,-472 242.59,-472 242.59,4 -4,4"/>
<!-- Voltage_0 -->
<g id="node1" class="node">
<title>Voltage_0</title>
<ellipse fill="none" stroke="#f0f0f0" cx="53.3" cy="-450" rx="53.09" ry="18"/>
<text text-anchor="middle" x="53.3" y="-446.3" font-family="Times,serif" font-size="14.00" fill="#f0f0f0">Voltage_0:0</text>
</g>
<!-- VCO_0 -->
<g id="node2" class="node">
<title>VCO_0</title>
<ellipse fill="none" stroke="#f0f0f0" cx="53.3" cy="-378" rx="44.69" ry="18"/>
<text text-anchor="middle" x="53.3" y="-374.3" font-family="Times,serif" font-size="14.00" fill="#f0f0f0">VCO_0:2</text>
</g>
<!-- Voltage_0&#45;&gt;VCO_0 -->
<g id="edge1" class="edge">
<title>Voltage_0&#45;&gt;VCO_0</title>
<path fill="none" stroke="#f0f0f0" d="M53.3,-431.7C53.3,-423.98 53.3,-414.71 53.3,-406.11"/>
<polygon fill="#f0f0f0" stroke="#f0f0f0" points="56.8,-406.1 53.3,-396.1 49.8,-406.1 56.8,-406.1"/>
</g>
<!-- Amplifier_0 -->
<g id="node3" class="node">
<title>Amplifier_0</title>
<ellipse fill="none" stroke="#f0f0f0" cx="111.3" cy="-306" rx="61.99" ry="18"/>
<text text-anchor="middle" x="111.3" y="-302.3" font-family="Times,serif" font-size="14.00" fill="#f0f0f0">Amplifier_0:3</text>
</g>
<!-- VCO_0&#45;&gt;Amplifier_0 -->
<g id="edge2" class="edge">
<title>VCO_0&#45;&gt;Amplifier_0</title>
<path fill="none" stroke="#f0f0f0" d="M66.75,-360.76C73.96,-352.06 83,-341.15 91.05,-331.43"/>
<polygon fill="#f0f0f0" stroke="#f0f0f0" points="93.83,-333.57 97.51,-323.63 88.44,-329.1 93.83,-333.57"/>
</g>
<!-- Mixer_0 -->
<g id="node4" class="node">
<title>Mixer_0</title>
<ellipse fill="none" stroke="#f0f0f0" cx="111.3" cy="-162" rx="48.19" ry="18"/>
<text text-anchor="middle" x="111.3" y="-158.3" font-family="Times,serif" font-size="14.00" fill="#f0f0f0">Mixer_0:5</text>
</g>
<!-- VCO_0&#45;&gt;Mixer_0 -->
<g id="edge3" class="edge">
<title>VCO_0&#45;&gt;Mixer_0</title>
<path fill="none" stroke="#f0f0f0" d="M48.02,-360.01C45.1,-349.7 41.77,-336.23 40.3,-324 34.47,-275.76 33.43,-258.33 57.3,-216 63.8,-204.47 73.55,-193.8 82.98,-185.11"/>
<polygon fill="#f0f0f0" stroke="#f0f0f0" points="85.54,-187.52 90.76,-178.29 80.93,-182.25 85.54,-187.52"/>
</g>
<!-- VCO_1 -->
<g id="node7" class="node">
<title>VCO_1</title>
<ellipse fill="none" stroke="#f0f0f0" cx="111.3" cy="-234" rx="44.69" ry="18"/>
<text text-anchor="middle" x="111.3" y="-230.3" font-family="Times,serif" font-size="14.00" fill="#f0f0f0">VCO_1:4</text>
</g>
<!-- Amplifier_0&#45;&gt;VCO_1 -->
<g id="edge6" class="edge">
<title>Amplifier_0&#45;&gt;VCO_1</title>
<path fill="none" stroke="#f0f0f0" d="M111.3,-287.7C111.3,-279.98 111.3,-270.71 111.3,-262.11"/>
<polygon fill="#f0f0f0" stroke="#f0f0f0" points="114.8,-262.1 111.3,-252.1 107.8,-262.1 114.8,-262.1"/>
</g>
<!-- Amplifier_1 -->
<g id="node6" class="node">
<title>Amplifier_1</title>
<ellipse fill="none" stroke="#f0f0f0" cx="156.3" cy="-90" rx="61.99" ry="18"/>
<text text-anchor="middle" x="156.3" y="-86.3" font-family="Times,serif" font-size="14.00" fill="#f0f0f0">Amplifier_1:6</text>
</g>
<!-- Mixer_0&#45;&gt;Amplifier_1 -->
<g id="edge8" class="edge">
<title>Mixer_0&#45;&gt;Amplifier_1</title>
<path fill="none" stroke="#f0f0f0" d="M121.96,-144.41C127.32,-136.08 133.93,-125.8 139.91,-116.49"/>
<polygon fill="#f0f0f0" stroke="#f0f0f0" points="142.93,-118.26 145.39,-107.96 137.04,-114.48 142.93,-118.26"/>
</g>
<!-- Voltage_1 -->
<g id="node5" class="node">
<title>Voltage_1</title>
<ellipse fill="none" stroke="#f0f0f0" cx="185.3" cy="-378" rx="53.09" ry="18"/>
<text text-anchor="middle" x="185.3" y="-374.3" font-family="Times,serif" font-size="14.00" fill="#f0f0f0">Voltage_1:1</text>
</g>
<!-- Voltage_1&#45;&gt;Amplifier_0 -->
<g id="edge4" class="edge">
<title>Voltage_1&#45;&gt;Amplifier_0</title>
<path fill="none" stroke="#f0f0f0" d="M168.13,-360.76C158.58,-351.73 146.53,-340.33 135.98,-330.35"/>
<polygon fill="#f0f0f0" stroke="#f0f0f0" points="138.29,-327.72 128.62,-323.39 133.48,-332.8 138.29,-327.72"/>
</g>
<!-- Voltage_1&#45;&gt;Amplifier_1 -->
<g id="edge5" class="edge">
<title>Voltage_1&#45;&gt;Amplifier_1</title>
<path fill="none" stroke="#f0f0f0" d="M185.06,-359.93C184.32,-321.25 181.2,-224.08 168.3,-144 166.92,-135.49 165,-126.3 163.1,-118"/>
<polygon fill="#f0f0f0" stroke="#f0f0f0" points="166.46,-117 160.74,-108.08 159.65,-118.62 166.46,-117"/>
</g>
<!-- VCO_2 -->
<g id="node8" class="node">
<title>VCO_2</title>
<ellipse fill="none" stroke="#f0f0f0" cx="156.3" cy="-18" rx="44.69" ry="18"/>
<text text-anchor="middle" x="156.3" y="-14.3" font-family="Times,serif" font-size="14.00" fill="#f0f0f0">VCO_2:7</text>
</g>
<!-- Amplifier_1&#45;&gt;VCO_2 -->
<g id="edge9" class="edge">
<title>Amplifier_1&#45;&gt;VCO_2</title>
<path fill="none" stroke="#f0f0f0" d="M156.3,-71.7C156.3,-63.98 156.3,-54.71 156.3,-46.11"/>
<polygon fill="#f0f0f0" stroke="#f0f0f0" points="159.8,-46.1 156.3,-36.1 152.8,-46.1 159.8,-46.1"/>
</g>
<!-- VCO_1&#45;&gt;Mixer_0 -->
<g id="edge7" class="edge">
<title>VCO_1&#45;&gt;Mixer_0</title>
<path fill="none" stroke="#f0f0f0" d="M111.3,-215.7C111.3,-207.98 111.3,-198.71 111.3,-190.11"/>
<polygon fill="#f0f0f0" stroke="#f0f0f0" points="114.8,-190.1 111.3,-180.1 107.8,-190.1 114.8,-190.1"/>
</g>
</g>
</svg>
